<svg xmlns="http://www.w3.org/2000/svg" viewBox="0 0 156.13 54.03"><g id="Layer_2" data-name="Layer 2"><g id="Layer_1-2" data-name="Layer 1"><path d="M26.16,7.14C18.75,8,13.29,14.24,8.58,20A37.57,37.57,0,0,0,3,28.18,37.61,37.61,0,0,0,.78,36.89C.3,39.61-.16,42.53,1,45a9.67,9.67,0,0,0,5,4.39C9.75,51,13.9,51.29,18,51.46c4.53.19,9.39.22,13.18-2.28a6.71,6.71,0,0,0,2.6-2.88,9.62,9.62,0,0,0,.58-3.24l.32-5a5.77,5.77,0,0,0-.5-3.49,5.33,5.33,0,0,0-3.27-1.93c-1.73-.46-3.75-.69-5.15.42S24,36.41,23.49,38.23A8.13,8.13,0,0,1,19,43.41a6,6,0,0,1-6.54-1.32c-2.55-2.83-1.24-7.34.61-10.68,2-3.65,4.56-7.16,8.17-9.22,3.38-1.93,7.4-2.45,10.86-4.22,1.93-1,3.87-2.86,3.45-5a5.94,5.94,0,0,0-1-2.09,13.08,13.08,0,0,0-3.81-4.26c-1.64-1-4-1.12-5.34.24" style="fill:#fff"/><path d="M3.93,4.41A16,16,0,0,0,5.49,27,11.42,11.42,0,0,0,12,30a7.35,7.35,0,0,0,6.45-2.57,5.48,5.48,0,0,0,0-6.71c-1.8-2.08-5.12-2.28-6.92-4.36-1.21-1.45-1.46-3.43-1.61-5.28S9.63,7.24,8.61,5.68,5.3,3.22,3.81,4.33" style="fill:#fff"/><path d="M32.87.16a4.21,4.21,0,0,0-3.43,2.31,14.89,14.89,0,0,0-1.73,8.09A15.3,15.3,0,0,0,29,17.06a7.44,7.44,0,0,0,5,4.13,5,5,0,0,0,5.54-2.7,27.17,27.17,0,0,0,.69-3.83A12.36,12.36,0,0,0,41,11.53,6.24,6.24,0,0,0,40.2,9L38,4.77a12,12,0,0,0-2.39-3.6,4,4,0,0,0-4-1" style="fill:#fff"/><path d="M37.22,3.83A2.74,2.74,0,0,1,38.6,1.22a5.91,5.91,0,0,1,3-.69c2,0,4.21.59,5.09,2.36a6.55,6.55,0,0,1,.5,2.58l.31,5.22c.11,1.86.15,3.94-1.09,5.33a4.52,4.52,0,0,1-1.8,1.18,6.51,6.51,0,0,1-8.42-3.74,6.26,6.26,0,0,1-.29-1,29.87,29.87,0,0,1-.3-3,15.32,15.32,0,0,1-.21-2.35c.1-2,1.45-3.67,2.74-5.19" style="fill:#fff"/><path d="M44.73,11.41A52.32,52.32,0,0,1,69,3.74C68.66,9,62.57,12,60.68,17c5-.19,9.85,2.75,12.69,6.89A23.68,23.68,0,0,1,77,38.2a12,12,0,0,1-1.18,5.21,14.46,14.46,0,0,1-4.13,4.33,30.88,30.88,0,0,1-7.27,4.67c-3.2,1.32-6.74,1.53-10.2,1.6-5,.1-10.23-.15-14.4-2.84s-6.64-8.64-4-12.82a7.53,7.53,0,0,1,9.66-2.41c1.9,1.07,3.22,2.94,5,4.25A10.29,10.29,0,0,0,66.81,30.11a3,3,0,0,0-1.46-2.29,10.47,10.47,0,0,0-9.74-1.2c-2.18.86-4,2.44-6.09,3.5s-4.78,1.51-6.67.13c-2.12-1.55-2.25-4.89-.82-7.09s4-3.42,6.54-4,5.2-.79,7.74-1.45L47,16.52a4.73,4.73,0,0,1-3-1.11,2.51,2.51,0,0,1,.38-3.51,2.85,2.85,0,0,1,.72-.41" style="fill:#fff"/><path d="M80.88,1.51,75.16,12c-3.72,6.85-7.56,14.32-6.43,22,.42,2.88,1.54,5.64,1.71,8.55.12,2-.21,4,.26,6s2.13,3.85,4.12,3.65a4,4,0,0,0,3-2.45,13.28,13.28,0,0,0,.89-4A76.22,76.22,0,0,1,83.18,28c1.3,2.71,2,5.68,3.06,8.47S89,42,91.71,43.41c2.87,1.49,6.38,1.15,9.45.15s6.1-2.77,7.76-5.56a13.3,13.3,0,0,0,1.64-5.51,18.23,18.23,0,0,0-3.35-13.08,7.58,7.58,0,0,0-3.9-2.82A4,4,0,0,0,99,18.08c-1.93,3.27,3,7.16,1.94,10.82a3.57,3.57,0,0,1-6.56.8,11.28,11.28,0,0,1-.82-3.63A10.55,10.55,0,0,0,83,17.63,25.88,25.88,0,0,0,88.74,7.27c.53-1.87.76-4.12-.58-5.54-1.8-1.91-5-1-7.35.13" style="fill:#fff"/><path d="M140.45,6.53C132.19,1.72,122.08,1.79,112.52,2c-3.06.07-6.51.31-8.48,2.66-1.26,1.51-1.6,3.56-1.9,5.51-.15,1-.2,2.24.65,2.79a2.64,2.64,0,0,0,1.51.27l20.9-.42c2,0,4.17,0,5.83,1.09-2.89.19-5.86-.41-8.64.4s-5.27,3.86-4,6.48c1,2,3.6,2.63,5.86,2.54s4.6-.59,6.71.22l-21.85,1c-2.62.12-5.73.56-6.86,2.92s.71,5.31,3.14,6.34,5.19.7,7.81.41A164.27,164.27,0,0,1,134,33.3c-1.53,1.88-2,4.49-3.65,6.28A9.23,9.23,0,0,1,127,41.74a19.86,19.86,0,0,1-18.44-2c-1-.66-2.12-1.46-3.22-1a2.26,2.26,0,0,0-1.27,2.4,5.57,5.57,0,0,0,1.34,2.58A25.06,25.06,0,0,0,132,51.72a14,14,0,0,0,6.52-4c3-3.52,3.11-8.57,3.09-13.19a14.63,14.63,0,0,0,9.6-.07c2.81-1,5.59-3.72,4.72-6.57a4.81,4.81,0,0,0-3.47-3,11.12,11.12,0,0,0-4.77.07c-2.6.49-6,1-7.33-1.25a19.27,19.27,0,0,1-.77-1.81c-1.13-2.36-4-3.14-6.6-3.65a8.23,8.23,0,0,0,6.69-11.36" style="fill:#fff"/></g></g></svg>