<svg xmlns="http://www.w3.org/2000/svg" viewBox="0 0 156.09 76.28"><g id="Layer_2" data-name="Layer 2"><g id="Layer_1-2" data-name="Layer 1"><path d="M26.16,29.39c-7.41.88-12.87,7.1-17.58,12.89A37.5,37.5,0,0,0,3,50.43,37.4,37.4,0,0,0,.78,59.14C.3,61.86-.16,64.78,1,67.27a9.72,9.72,0,0,0,5,4.39c3.75,1.63,7.9,1.88,12,2,4.53.19,9.39.22,13.18-2.28a6.83,6.83,0,0,0,2.6-2.88,9.46,9.46,0,0,0,.58-3.24l.32-5a5.75,5.75,0,0,0-.5-3.49,5.24,5.24,0,0,0-3.27-1.93c-1.73-.46-3.75-.69-5.15.42S24,58.66,23.49,60.48A8.13,8.13,0,0,1,19,65.66a6,6,0,0,1-6.54-1.32c-2.55-2.83-1.24-7.34.61-10.68,2-3.65,4.56-7.16,8.17-9.22,3.38-1.93,7.4-2.45,10.86-4.22,1.93-1,3.87-2.86,3.45-5a5.78,5.78,0,0,0-1-2.09,13,13,0,0,0-3.81-4.26c-1.64-1-4-1.12-5.34.24" style="fill:#fff"/><path d="M3.93,26.66A16,16,0,0,0,5.49,49.23a11.55,11.55,0,0,0,6.48,3,7.36,7.36,0,0,0,6.45-2.57,5.48,5.48,0,0,0,0-6.71c-1.8-2.08-5.12-2.28-6.92-4.36-1.21-1.45-1.46-3.43-1.61-5.28s-.26-3.82-1.28-5.38-3.31-2.46-4.8-1.35" style="fill:#fff"/><path d="M29.52,22.41a4.19,4.19,0,0,0-3.43,2.31,14.87,14.87,0,0,0-1.73,8.09,15.32,15.32,0,0,0,1.29,6.5,7.44,7.44,0,0,0,5,4.13,5,5,0,0,0,5.54-2.7,27.7,27.7,0,0,0,.69-3.83,12.58,12.58,0,0,0,.77-3.13,6,6,0,0,0-.84-2.57L34.65,27a11.79,11.79,0,0,0-2.39-3.6,4,4,0,0,0-4-1" style="fill:#fff"/><path d="M34.62,26.09A2.72,2.72,0,0,1,36,23.48a5.89,5.89,0,0,1,3-.69c2,0,4.21.59,5.09,2.36a6.52,6.52,0,0,1,.5,2.58L44.9,33c.11,1.86.15,3.94-1.09,5.33A4.59,4.59,0,0,1,42,39.46a6.51,6.51,0,0,1-8.42-3.74h0a6,6,0,0,1-.29-1q-.22-1.5-.3-3a15.43,15.43,0,0,1-.21-2.35c.1-2,1.45-3.67,2.74-5.19" style="fill:#fff"/><path d="M44.73,33.66A52.13,52.13,0,0,1,69,26c-.38,5.28-6.47,8.27-8.36,13.22,5-.19,9.85,2.75,12.69,6.89A23.61,23.61,0,0,1,77,60.45a12.07,12.07,0,0,1-1.18,5.21A14.58,14.58,0,0,1,71.69,70a30.88,30.88,0,0,1-7.27,4.67c-3.2,1.32-6.74,1.53-10.2,1.6-5,.1-10.23-.15-14.4-2.84s-6.64-8.64-4-12.82a7.52,7.52,0,0,1,9.68-2.41c1.9,1.07,3.22,2.94,5,4.25A10.29,10.29,0,0,0,66.81,52.36a3,3,0,0,0-1.46-2.27,10.41,10.41,0,0,0-9.74-1.2c-2.18.86-4,2.44-6.09,3.5s-4.78,1.51-6.67.13C40.73,51,40.6,47.63,42,45.43s4-3.42,6.54-4,5.2-.79,7.74-1.45L47,38.77a4.84,4.84,0,0,1-3-1.11,2.5,2.5,0,0,1,.38-3.51,2.58,2.58,0,0,1,.72-.41" style="fill:#fff"/><path d="M80.88,23.76,75.16,34.28c-3.72,6.85-7.56,14.32-6.43,22,.42,2.88,1.54,5.64,1.71,8.55.12,2-.21,4,.26,6s2.13,3.85,4.12,3.65a4,4,0,0,0,3-2.45,13.41,13.41,0,0,0,.89-4,76.09,76.09,0,0,1,4.47-17.76c1.3,2.71,2,5.68,3.06,8.47s2.8,5.54,5.47,6.92c2.87,1.49,6.38,1.15,9.45.15s6.1-2.77,7.76-5.56a13.39,13.39,0,0,0,1.64-5.51,18.22,18.22,0,0,0-3.35-13.08,7.58,7.58,0,0,0-3.9-2.82A3.94,3.94,0,0,0,99,40.33c-1.93,3.27,3,7.16,1.94,10.82a3.57,3.57,0,0,1-6.56.8,11.34,11.34,0,0,1-.82-3.63A10.54,10.54,0,0,0,83,39.88a25.88,25.88,0,0,0,5.74-10.36c.53-1.87.76-4.12-.58-5.54-1.8-1.91-5-1-7.35.13" style="fill:#fff"/><path d="M140.45,28.78C132.19,24,122.08,24,112.52,24.25c-3.06.07-6.51.31-8.48,2.66-1.26,1.51-1.6,3.56-1.9,5.51-.15,1-.2,2.24.65,2.79a2.64,2.64,0,0,0,1.51.27l20.9-.39c2,0,4.17,0,5.83,1.09-2.89.19-5.86-.41-8.64.4s-5.27,3.86-4,6.48c1,2,3.6,2.63,5.86,2.54s4.6-.59,6.71.22l-21.85,1c-2.62.12-5.73.56-6.86,2.92s.71,5.31,3.14,6.34,5.19.7,7.81.41a164.27,164.27,0,0,1,20.8-.91c-1.53,1.88-2,4.49-3.65,6.28A9.3,9.3,0,0,1,127,64a19.9,19.9,0,0,1-18.44-2c-1-.66-2.12-1.46-3.22-1a2.25,2.25,0,0,0-1.27,2.4A5.77,5.77,0,0,0,105.41,66,25.08,25.08,0,0,0,132,74a14,14,0,0,0,6.52-4c3-3.52,3.11-8.57,3.09-13.19a14.69,14.69,0,0,0,9.6-.07c2.81-1,5.59-3.72,4.72-6.57a4.81,4.81,0,0,0-3.47-3,11,11,0,0,0-4.77.07c-2.6.49-6,1-7.33-1.25-.29-.59-.54-1.2-.77-1.81-1.13-2.36-4-3.14-6.6-3.65a8.23,8.23,0,0,0,6.69-11.36" style="fill:#fff"/><g style="isolation:isolate"><path d="M15.87,4.37H4.08a.41.41,0,0,1,0-.82H9.34V2.35H6.68a.41.41,0,0,1-.41-.41.41.41,0,0,1,.41-.41H9.34V.64A.41.41,0,0,1,9.75.23a.41.41,0,0,1,.41.41v.89h2.66a.41.41,0,0,1,.41.41.42.42,0,0,1-.41.41H10.16v1.2h5.71a.41.41,0,1,1,0,.82Zm-2,2.14H11.93V10a.41.41,0,0,1-.41.41H9.45A.41.41,0,0,1,9,10a.42.42,0,0,1,.41-.41h1.66V6.51H6a.43.43,0,0,1-.41-.41A.41.41,0,0,1,6,5.69h5.12V5a.41.41,0,0,1,.41-.41.41.41,0,0,1,.41.41v.68h1.93a.41.41,0,0,1,.41.41A.42.42,0,0,1,13.86,6.51ZM8.36,8.69h-2a.42.42,0,0,1,0-.83h2a.42.42,0,0,1,0,.83Z" style="fill:#fff"/></g><g style="isolation:isolate"><path d="M26.72,3.49H24v0a.41.41,0,0,1-.21.37l-.42.24,1.14,1.58A.44.44,0,0,1,24.6,6v4a.41.41,0,0,1-.42.41H22.5a.41.41,0,0,1-.41-.41.42.42,0,0,1,.41-.41h1.27V7.68L20,9.86a.42.42,0,0,1-.21.06.42.42,0,0,1-.21-.77l4.18-2.44V6.1l-.18-.26L18.71,8.61a.34.34,0,0,1-.21.06.42.42,0,0,1-.41-.41.42.42,0,0,1,.21-.37l4.8-2.73-.44-.62L20,6a.36.36,0,0,1-.2.06.42.42,0,0,1-.41-.41.4.4,0,0,1,.2-.36l3.22-1.84H21.16a.37.37,0,1,1,0-.73h5.56a.37.37,0,0,1,0,.73Zm1.79.7a.42.42,0,0,1-.41-.41V2.12H19.7V3.78a.43.43,0,0,1-.41.41.41.41,0,0,1-.41-.41V1.71a.41.41,0,0,1,.41-.41h4.17V.41A.41.41,0,0,1,23.87,0a.41.41,0,0,1,.41.41V1.3h4.23a.41.41,0,0,1,.41.41V3.78A.41.41,0,0,1,28.51,4.19Zm1.08,6a.33.33,0,0,1-.26-.1l-4.4-3.94a.41.41,0,0,1-.14-.3A.39.39,0,0,1,25,5.5l1.86-1.23a.36.36,0,0,1,.24-.07.4.4,0,0,1,.22.74l-1.43.94,4,3.58a.42.42,0,0,1,.14.31A.41.41,0,0,1,29.59,10.18Z" style="fill:#fff"/></g><g style="isolation:isolate"><path d="M34.14,6,31.87,8.25a.42.42,0,0,1-.71-.3.41.41,0,0,1,.13-.3l2.29-2.19a.41.41,0,0,1,.28-.13.42.42,0,0,1,.41.43A.35.35,0,0,1,34.14,6ZM39,2.12l-2.4,2a4.28,4.28,0,0,1,1.71,3.28,2.32,2.32,0,0,1-2.39,2.45A4,4,0,0,1,33.82,9a.4.4,0,0,1-.16-.32.39.39,0,0,1,.4-.4.51.51,0,0,1,.27.09,3.17,3.17,0,0,0,1.6.62,1.56,1.56,0,0,0,1.58-1.63,3.75,3.75,0,0,0-1.82-3,.34.34,0,0,1-.19-.32.46.46,0,0,1,.19-.34l2.05-1.56-4.19-.11a.42.42,0,0,1,0-.83l5.21.14a.41.41,0,0,1,.41.41A.4.4,0,0,1,39,2.12ZM42,8.06A.32.32,0,0,1,41.73,8L39.42,6.28a.41.41,0,0,1,.24-.75.36.36,0,0,1,.24.09l2.29,1.71a.39.39,0,0,1,.17.32A.4.4,0,0,1,42,8.06Z" style="fill:#fff"/></g><g style="isolation:isolate"><path d="M47.88,10.1c-1.57,0-2.32-.76-2.32-1.61A1.29,1.29,0,0,1,46.92,7.3a3.21,3.21,0,0,1,2.57,1.61.35.35,0,0,1,.06.19c1.31-.36,1.81-1.15,1.81-1.86,0-1-.67-1.7-2.38-1.7a8.08,8.08,0,0,0-3.46.74l-1.16,1a.39.39,0,0,1-.26.1A.43.43,0,0,1,43.69,7a.45.45,0,0,1,.14-.32s4.22-3.52,5.43-4.55H45.49a.4.4,0,0,1-.4-.4.41.41,0,0,1,.4-.41h4.89a.42.42,0,0,1,.41.43.37.37,0,0,1-.14.29L47,5A7.33,7.33,0,0,1,49,4.72c2.65,0,3.18,1.45,3.18,2.52C52.16,8.56,51.05,10.1,47.88,10.1Zm-1-2c-.36,0-.56.23-.56.41,0,.5.51.82,1.52.82a6.63,6.63,0,0,0,.92,0A2.43,2.43,0,0,0,46.92,8.06Z" style="fill:#fff"/></g><g style="isolation:isolate"><path d="M64.09,3.64H60.48a10.72,10.72,0,0,0,1.91,2.75.44.44,0,0,1,.11.3.41.41,0,0,1-.39.4.34.34,0,0,1-.17,0,8.63,8.63,0,0,0-3.07-.66c-1.63,0-2.22.81-2.22,1.34,0,1.22,1.84,1.39,2.94,1.39h2.57a.41.41,0,0,1,0,.82H59.59c-3.34,0-3.75-1.47-3.75-2.21,0-1.07,1-2.15,3-2.15a8.42,8.42,0,0,1,2,.31,11.35,11.35,0,0,1-1.31-2.24H54.85a.42.42,0,0,1-.41-.41.41.41,0,0,1,.41-.41h4.43a6.61,6.61,0,0,1-.43-2,.4.4,0,1,1,.8,0,6.25,6.25,0,0,0,.48,2h4a.41.41,0,0,1,.41.41A.43.43,0,0,1,64.09,3.64Z" style="fill:#fff"/></g><g style="isolation:isolate"><path d="M74.27,9.65l-3.62.17h-.78c-2.91,0-3.39-.9-3.39-1.87s.86-2,2-2.88l-.55-4a.4.4,0,0,1,.4-.41.39.39,0,0,1,.41.34l.49,3.59A20.82,20.82,0,0,1,72.9,2.69l.15,0a.41.41,0,0,1,.15.78C71,4.31,67.28,6.32,67.28,8c0,.44.39,1,2.72,1h.69l3.54-.16a.41.41,0,0,1,0,.81Z" style="fill:#fff"/></g><g style="isolation:isolate"><path d="M81.08,3.3H79.92V4.5L81.3,5.63a.44.44,0,0,1,.14.33.39.39,0,0,1-.4.39.41.41,0,0,1-.25-.08l-.87-.71v4.71a.41.41,0,0,1-.82,0V5.53L77,7.44a.38.38,0,0,1-.27.1.39.39,0,0,1-.27-.71l2.67-2.4V3.3H76.92a.42.42,0,0,1-.41-.41.41.41,0,0,1,.41-.4H79.1V.72a.41.41,0,0,1,.82,0V2.49h1.16a.4.4,0,0,1,.41.4A.41.41,0,0,1,81.08,3.3Zm7.74.56H86.9V9.92a.43.43,0,0,1-.41.41H84.31a.41.41,0,0,1,0-.82h1.77V3.86H82.19a.41.41,0,0,1-.41-.41A.42.42,0,0,1,82.19,3h3.89V.62a.41.41,0,0,1,.41-.41.43.43,0,0,1,.41.41V3h1.92a.41.41,0,0,1,.41.41A.41.41,0,0,1,88.82,3.86ZM84.37,6.69H82.81a.42.42,0,0,1-.41-.41.41.41,0,0,1,.41-.41h1.56a.41.41,0,0,1,.41.41A.43.43,0,0,1,84.37,6.69Z" style="fill:#fff"/></g><g style="isolation:isolate"><path d="M96,9.58a.41.41,0,0,1-.41-.41A.41.41,0,0,1,96,8.76c2,0,4.09-1.63,4.09-3.24,0-1.87-1.36-3-3.58-3h-.21v.7A12.37,12.37,0,0,1,95,7c-.57,1-1.28,1.78-1.9,1.78-.82,0-1.75-.68-1.75-2.63,0-2.19,1.91-4.45,5.1-4.45,2.73,0,4.49,1.52,4.49,3.86C101,7.61,98.56,9.58,96,9.58Zm-.52-7a3.78,3.78,0,0,0-3.34,3.55c0,1.22.42,1.81.93,1.81s1.88-2,2.41-4.78Z" style="fill:#fff"/></g><g style="isolation:isolate"><path d="M107.06,1.1l-1.43,1a.35.35,0,0,1,0,.14v7.89a.4.4,0,0,1-.41.39.41.41,0,0,1-.41-.39V2.74l-1.77,1.31a.41.41,0,0,1-.25.08.41.41,0,0,1-.41-.41.39.39,0,0,1,.17-.33l4-2.94a.41.41,0,0,1,.24-.08.42.42,0,0,1,.34.17.41.41,0,0,1,.08.24A.36.36,0,0,1,107.06,1.1Zm8.19,5.68h-4.1v3.5a.41.41,0,0,1-.82,0V6.78h-3.71a.43.43,0,0,1-.41-.41.42.42,0,0,1,.41-.41h3.71V5a.41.41,0,0,1,.82,0V6h4.1a.41.41,0,0,1,.41.41A.41.41,0,0,1,115.25,6.78Zm-6.17,1.71-1.71,1.13a.42.42,0,0,1-.22.05.41.41,0,0,1-.41-.39.42.42,0,0,1,.19-.34l1.7-1.13a.41.41,0,1,1,.45.68ZM113,4.31h-4.34a.41.41,0,0,1-.41-.41V1.29a.42.42,0,0,1,.41-.41H113a.42.42,0,0,1,.41.41V3.9A.41.41,0,0,1,113,4.31Zm-.41-2.61h-3.52V3.49h3.52Zm2.25,7.81a.43.43,0,0,1-.34.18.44.44,0,0,1-.22-.07l-1.7-1.13a.48.48,0,0,1-.19-.34.44.44,0,0,1,.43-.41.51.51,0,0,1,.23.07l1.68,1.13a.43.43,0,0,1,.18.34A.51.51,0,0,1,114.84,9.51Z" style="fill:#fff"/><path d="M129.34,2.19H125a.38.38,0,0,1,.21.14l1,1.42a.44.44,0,0,1,.07.21.38.38,0,0,1-.37.37h-5A.37.37,0,0,1,120.5,4a.37.37,0,0,1,.08-.24l1.26-1.53h-4.68a.42.42,0,0,1-.41-.41.41.41,0,0,1,.41-.41h5.66V.44a.41.41,0,0,1,.41-.41.41.41,0,0,1,.41.41v.93h5.7a.42.42,0,0,1,.41.41A.43.43,0,0,1,129.34,2.19Zm-3.74,8.49a.4.4,0,0,1-.41-.38V5.84h-4v.75h3.19a.37.37,0,0,1,0,.74H121.2v.78h3.19a.36.36,0,0,1,.35.36.37.37,0,0,1-.35.37h-3.27l-1.87,1.7a.44.44,0,0,1-.3.1.38.38,0,0,1-.39-.39.39.39,0,0,1,.13-.31l1.69-1.55V5.45a.42.42,0,0,1,.41-.39h4.81a.42.42,0,0,1,.41.39V10.3A.41.41,0,0,1,125.6,10.68Zm-1-7.92a.44.44,0,0,1-.07-.21c0-.22.12-.3.29-.36h-2l-1.16,1.4h3.52Z" style="fill:#fff"/><path d="M142.08,10.06h-9.56a.42.42,0,0,1-.41-.41V1.13a.41.41,0,0,1,.41-.41h9.56a.42.42,0,0,1,.41.41V9.65A.43.43,0,0,1,142.08,10.06Zm-.41-8.52h-8.74v7.7h8.74Zm-2.49,4.83h-1.61V8.64a.38.38,0,0,1-.4.34.36.36,0,0,1-.38-.34V6.82l-2.74,1.5a.38.38,0,0,1-.17,0,.37.37,0,0,1-.37-.38.34.34,0,0,1,.18-.31l2.46-1.3h-.65a.33.33,0,0,1-.32-.33V4.79a.34.34,0,0,1,.32-.32h3.68a.35.35,0,0,1,.33.32V6A.34.34,0,0,1,139.18,6.37ZM140.64,4H134a.33.33,0,1,1,0-.66h3v-.5h-1.93a.33.33,0,0,1-.32-.32.35.35,0,0,1,.32-.36H137V2a.38.38,0,1,1,.76,0v.18h2a.36.36,0,0,1,.33.36.34.34,0,0,1-.33.32h-2v.5h2.89a.33.33,0,1,1,0,.66Zm-1.9,1.09h-2.8v.59h2.8Zm2.12,3.82a.28.28,0,0,1-.15,0l-2.55-1.37a.35.35,0,0,1-.18-.32.29.29,0,0,1,.2-.26l2-1a.23.23,0,0,1,.14,0,.32.32,0,0,1,.32.32.32.32,0,0,1-.18.3l-1.39.66,2,1.08a.31.31,0,0,1,.17.29A.33.33,0,0,1,140.86,8.94Z" style="fill:#fff"/></g></g></g></svg>