<svg xmlns="http://www.w3.org/2000/svg" viewBox="0 0 102.31 102.31"><g id="Layer_2" data-name="Layer 2"><g id="Layer_1-2" data-name="Layer 1"><circle cx="51.15" cy="51.15" r="51.15" style="fill:#364953"/><path d="M59.53,32.26c-7.41.88-12.87,7.1-17.58,12.89a37.33,37.33,0,0,0-5.54,8.15A37.11,37.11,0,0,0,34.15,62c-.48,2.72-.94,5.64.26,8.13a9.6,9.6,0,0,0,5,4.39c3.71,1.63,7.86,1.88,11.91,2,4.53.19,9.39.22,13.18-2.28a6.77,6.77,0,0,0,2.6-2.88,9.92,9.92,0,0,0,.58-3.24l.32-5a5.85,5.85,0,0,0-.5-3.49,5.28,5.28,0,0,0-3.27-1.93c-1.73-.46-3.75-.69-5.15.42s-1.67,3.35-2.22,5.17a8.15,8.15,0,0,1-4.52,5.18,6,6,0,0,1-6.54-1.32c-2.55-2.83-1.24-7.34.61-10.68,2-3.65,4.56-7.16,8.17-9.22C58,45.38,62,44.86,65.44,43.09c1.93-1,3.87-2.86,3.45-5a6.3,6.3,0,0,0-1-2.09,13.08,13.08,0,0,0-3.81-4.26c-1.64-1-4-1.12-5.34.24" style="fill:#fff"/><path d="M37.3,29.53A16,16,0,0,0,38.86,52.1a11.43,11.43,0,0,0,6.48,3,7.38,7.38,0,0,0,6.45-2.57,5.48,5.48,0,0,0,0-6.71c-1.8-2.08-5.12-2.28-6.92-4.36C43.66,40,43.41,38,43.26,36.18S43,32.36,42,30.8s-3.31-2.46-4.8-1.35" style="fill:#fff"/><path d="M61,25.76a2.88,2.88,0,0,0-2.36,1.59,10.14,10.14,0,0,0-1.19,5.56,10.45,10.45,0,0,0,.92,4.47,5.09,5.09,0,0,0,3.43,2.83,3.43,3.43,0,0,0,3.81-1.85,18.36,18.36,0,0,0,.47-2.63,8.56,8.56,0,0,0,.53-2.15A4.24,4.24,0,0,0,66,31.81l-1.49-2.88a8.07,8.07,0,0,0-1.64-2.47,2.75,2.75,0,0,0-2.75-.69" style="fill:#fff"/><path d="M50.59,28a2.08,2.08,0,0,1,.88-1.89,3.89,3.89,0,0,1,5.13,1.21,5.15,5.15,0,0,1,.32,1.87l.2,3.77c.07,1.35.09,2.86-.69,3.86a2.88,2.88,0,0,1-1.15.85A4,4,0,0,1,49.94,35a3.88,3.88,0,0,1-.18-.69c-.1-.72-.16-1.44-.19-2.17a12.06,12.06,0,0,1-.14-1.7,7.07,7.07,0,0,1,1.74-3.75" style="fill:#fff"/></g></g></svg>